{
	"asset":{
		"version":"2.0",
		"generator":"Houdini GLTF 2.0 Exporter"
	},
	"accessors":[
		{
			"bufferView":0,
			"componentType":5125,
			"count":2433159,
			"type":"SCALAR",
			"min":[0
			],
			"max":[620741
			]
		},
		{
			"bufferView":1,
			"componentType":5126,
			"count":620742,
			"type":"VEC3",
			"min":[-1749.86316,-0.0977911204,-1749.82837
			],
			"max":[1749.88794,500.882446,1749.92236
			]
		},
		{
			"bufferView":2,
			"componentType":5126,
			"count":620742,
			"type":"VEC2",
			"min":[-0.000209532562,-0.000220656395
			],
			"max":[1.00014055,1.00014901
			]
		},
		{
			"bufferView":3,
			"componentType":5126,
			"count":620742,
			"type":"VEC4",
			"min":[-0.99061209,-0.999886453,-0.742663324,1
			],
			"max":[0.997919917,0.999917448,1,1
			]
		},
		{
			"bufferView":4,
			"componentType":5126,
			"count":620742,
			"type":"VEC3",
			"min":[-0.999851882,-0.999009252,-0.999993443
			],
			"max":[0.999970555,1,1
			]
		}
	],
	"buffers":[
		{
			"uri":"test_terrain_for_Nige_v001_data.bin",
			"byteLength":39528252,
			"name":"main_buffer"
		}
	],
	"bufferViews":[
		{
			"buffer":0,
			"byteLength":9732636,
			"target":34963
		},
		{
			"buffer":0,
			"byteOffset":9732636,
			"byteLength":7448904,
			"target":34962
		},
		{
			"buffer":0,
			"byteOffset":17181540,
			"byteLength":4965936,
			"target":34962
		},
		{
			"buffer":0,
			"byteOffset":22147476,
			"byteLength":9931872,
			"target":34962
		},
		{
			"buffer":0,
			"byteOffset":32079348,
			"byteLength":7448904,
			"target":34962
		}
	],
	"nodes":[
		{
			"children":[1
			],
			"name":"Root"
		},
		{
			"name":"terrain_for_nige_geo",
			"mesh":0
		}
	],
	"meshes":[
		{
			"primitives":[
				{
					"attributes":{
						"POSITION":1,
						"TANGENT":3,
						"NORMAL":4,
						"TEXCOORD_0":2
					},
					"indices":0
				}
			],
			"name":"filecache1"
		}
	],
	"scenes":[
		{
			"nodes":[0
			]
		}
	],
	"scene":0
}
